<svg width="146" height="34" viewBox="0 0 146 34" fill="none" xmlns="http://www.w3.org/2000/svg">
<path d="M85.9622 24H81.8743L80.2493 19.7725H72.8099L71.2738 24H67.2874L74.5364 5.38869H78.5101L85.9622 24ZM79.0433 16.6367L76.4788 9.73049L73.9652 16.6367H79.0433ZM86.3827 8.68949V5.38869H89.9501V8.68949H86.3827ZM86.3827 24V10.5176H89.9501V24H86.3827ZM95.4741 24H91.9067V10.5176H95.2202V12.4346C95.7872 11.529 96.295 10.9323 96.7436 10.6445C97.201 10.3568 97.717 10.2129 98.292 10.2129C99.105 10.2129 99.888 10.4372 100.641 10.8857L99.537 13.9961C98.936 13.6068 98.377 13.4121 97.861 13.4121C97.361 13.4121 96.9383 13.5518 96.5913 13.8311C96.2442 14.1019 95.9692 14.597 95.7661 15.3164C95.5714 16.0358 95.4741 17.5423 95.4741 19.8359V24ZM118.24 17.1572L121.883 18.3125C121.325 20.3438 120.394 21.8545 119.09 22.8447C117.795 23.8265 116.149 24.3174 114.152 24.3174C111.681 24.3174 109.649 23.4753 108.058 21.791C106.467 20.0983 105.671 17.7878 105.671 14.8594C105.671 11.7617 106.471 9.35809 108.071 7.64839C109.67 5.93029 111.774 5.07129 114.38 5.07129C116.657 5.07129 118.506 5.74409 119.928 7.08979C120.775 7.88539 121.409 9.02799 121.833 10.5176L118.113 11.4062C117.893 10.4414 117.432 9.67969 116.729 9.12109C116.035 8.56249 115.189 8.28319 114.19 8.28319C112.81 8.28319 111.689 8.77829 110.826 9.76859C109.971 10.7588 109.544 12.3626 109.544 14.5801C109.544 16.9329 109.967 18.6087 110.813 19.6074C111.659 20.6061 112.76 21.1055 114.114 21.1055C115.113 21.1055 115.972 20.7881 116.691 20.1533C117.41 19.5186 117.927 18.5199 118.24 17.1572ZM126.201 14.6309L122.964 14.0469C123.328 12.7435 123.954 11.7786 124.843 11.1523C125.732 10.526 127.052 10.2129 128.804 10.2129C130.395 10.2129 131.58 10.4033 132.359 10.7842C133.137 11.1566 133.683 11.6348 133.996 12.2188C134.318 12.7943 134.479 13.8564 134.479 15.4053L134.441 19.5693C134.441 20.7542 134.496 21.6302 134.606 22.1973C134.724 22.7559 134.94 23.3568 135.253 24H131.724C131.631 23.763 131.516 23.4118 131.381 22.9463C131.322 22.7347 131.279 22.5951 131.254 22.5273C130.645 23.1198 129.993 23.5641 129.299 23.8604C128.605 24.1566 127.864 24.3047 127.077 24.3047C125.689 24.3047 124.593 23.9281 123.789 23.1748C122.994 22.4215 122.596 21.4694 122.596 20.3184C122.596 19.5566 122.778 18.8796 123.142 18.2871C123.506 17.6862 124.013 17.2292 124.665 16.916C125.325 16.5944 126.273 16.3151 127.509 16.0781C129.176 15.765 130.331 15.473 130.975 15.2021V14.8467C130.975 14.1611 130.805 13.6745 130.467 13.3867C130.128 13.0905 129.489 12.9424 128.55 12.9424C127.915 12.9424 127.42 13.0693 127.065 13.3232C126.709 13.5687 126.421 14.0046 126.201 14.6309ZM130.975 17.5254C130.518 17.6777 129.794 17.8597 128.804 18.0713C127.814 18.2829 127.166 18.4902 126.861 18.6934C126.396 19.0234 126.163 19.4424 126.163 19.9502C126.163 20.4495 126.349 20.8812 126.722 21.2451C127.094 21.609 127.568 21.791 128.144 21.791C128.787 21.791 129.401 21.5794 129.984 21.1562C130.416 20.8346 130.7 20.4411 130.835 19.9756C130.928 19.6709 130.975 19.0911 130.975 18.2363V17.5254ZM139.863 24H136.296V10.5176H139.609V12.4346C140.176 11.529 140.684 10.9323 141.132 10.6445C141.59 10.3568 142.106 10.2129 142.681 10.2129C143.494 10.2129 144.277 10.4372 145.03 10.8857L143.925 13.9961C143.325 13.6068 142.766 13.4121 142.25 13.4121C141.75 13.4121 141.327 13.5518 140.98 13.8311C140.633 14.1019 140.358 14.597 140.155 15.3164C139.96 16.0358 139.863 17.5423 139.863 19.8359V24Z" fill="#171717"/>
<path d="M31.8334 29.6666H6.16675V31.4999C6.16675 32.5125 5.34593 33.3332 4.33341 33.3332H2.50008C1.48757 33.3332 0.666748 32.5125 0.666748 31.4999V14.9999L5.27454 2.71251C5.81121 1.28141 7.17929 0.333252 8.70779 0.333252H29.2924C30.8209 0.333252 32.1889 1.28141 32.7257 2.71251L37.3334 14.9999V31.4999C37.3334 32.5125 36.5126 33.3332 35.5001 33.3332H33.6668C32.6542 33.3332 31.8334 32.5125 31.8334 31.4999V29.6666ZM4.58275 14.9999H33.4174L29.2924 3.99991H8.70779L4.58275 14.9999ZM8.91679 24.1666C10.4355 24.1666 11.6668 22.9353 11.6668 21.4166C11.6668 19.8978 10.4355 18.6666 8.91679 18.6666C7.39799 18.6666 6.16675 19.8978 6.16675 21.4166C6.16675 22.9353 7.39799 24.1666 8.91679 24.1666ZM29.0834 24.1666C30.6022 24.1666 31.8334 22.9353 31.8334 21.4166C31.8334 19.8978 30.6022 18.6666 29.0834 18.6666C27.5647 18.6666 26.3334 19.8978 26.3334 21.4166C26.3334 22.9353 27.5647 24.1666 29.0834 24.1666Z" fill="#404040"/>
</svg>
