<svg width="166" height="38" viewBox="0 0 166 38" fill="none" xmlns="http://www.w3.org/2000/svg">
<path d="M57.7471 11.592C61.0751 11.592 63.5364 12.372 65.1311 13.932C66.7431 15.4747 67.5491 17.6933 67.5491 20.588C67.5491 22.4773 67.1504 24.1327 66.3531 25.554C65.5731 26.958 64.4377 28.05 62.9471 28.83C61.4564 29.61 59.6451 30 57.5131 30C57.2531 30 56.8977 29.9913 56.4471 29.974C56.0137 29.9567 55.5544 29.948 55.0691 29.948C54.6011 29.9307 54.1677 29.922 53.7691 29.922C53.0584 29.922 52.3651 29.9307 51.6891 29.948C51.0131 29.948 50.4584 29.9653 50.0251 30V29.48C50.5971 29.4453 51.0217 29.376 51.2991 29.272C51.5937 29.168 51.7844 28.96 51.8711 28.648C51.9751 28.336 52.0271 27.868 52.0271 27.244V14.348C52.0271 13.7067 51.9751 13.2387 51.8711 12.944C51.7844 12.632 51.5937 12.424 51.2991 12.32C51.0217 12.1987 50.5971 12.1293 50.0251 12.112V11.592C50.4584 11.6093 51.0131 11.6353 51.6891 11.67C52.3651 11.6873 53.0411 11.6873 53.7171 11.67C54.3411 11.6527 55.0431 11.6353 55.8231 11.618C56.6031 11.6007 57.2444 11.592 57.7471 11.592ZM57.5131 12.06C56.7157 12.06 56.1957 12.2073 55.9531 12.502C55.7104 12.7967 55.5891 13.3947 55.5891 14.296V27.296C55.5891 28.1973 55.7104 28.7953 55.9531 29.09C56.2131 29.3847 56.7417 29.532 57.5391 29.532C59.1511 29.532 60.4077 29.194 61.3091 28.518C62.2277 27.8247 62.8691 26.8193 63.2331 25.502C63.6144 24.1847 63.8051 22.5813 63.8051 20.692C63.8051 18.7507 63.5971 17.1473 63.1811 15.882C62.7824 14.5993 62.1237 13.646 61.2051 13.022C60.2864 12.3807 59.0557 12.06 57.5131 12.06ZM75.5057 11.592V12.112C74.951 12.1293 74.5264 12.1987 74.2317 12.32C73.9544 12.424 73.7637 12.632 73.6597 12.944C73.5557 13.2387 73.5037 13.7067 73.5037 14.348V27.244C73.5037 27.868 73.5557 28.336 73.6597 28.648C73.7637 28.96 73.9544 29.168 74.2317 29.272C74.5264 29.376 74.951 29.4453 75.5057 29.48V30C75.0724 29.9653 74.5177 29.948 73.8417 29.948C73.1657 29.9307 72.4811 29.922 71.7878 29.922C71.0078 29.922 70.2797 29.9307 69.6037 29.948C68.9277 29.948 68.373 29.9653 67.9397 30V29.48C68.5117 29.4453 68.9364 29.376 69.2137 29.272C69.5084 29.168 69.699 28.96 69.7857 28.648C69.8897 28.336 69.9417 27.868 69.9417 27.244V14.348C69.9417 13.7067 69.8897 13.2387 69.7857 12.944C69.699 12.632 69.5084 12.424 69.2137 12.32C68.9364 12.1987 68.5117 12.1293 67.9397 12.112V11.592C68.373 11.6093 68.9277 11.6267 69.6037 11.644C70.2797 11.6613 71.0078 11.67 71.7878 11.67C72.4811 11.67 73.1657 11.6613 73.8417 11.644C74.5177 11.6267 75.0724 11.6093 75.5057 11.592ZM84.0924 11.514L90.4104 27.816C90.6704 28.44 90.9477 28.8733 91.2424 29.116C91.5544 29.3413 91.8404 29.4627 92.1004 29.48V30C91.6497 29.9653 91.1037 29.948 90.4624 29.948C89.8384 29.9307 89.1971 29.922 88.5384 29.922C87.7757 29.922 87.0651 29.9307 86.4064 29.948C85.7477 29.948 85.2104 29.9653 84.7944 30V29.48C85.6784 29.4453 86.2417 29.298 86.4844 29.038C86.7271 28.7607 86.6751 28.18 86.3284 27.296L81.7524 14.946L82.2204 14.374L78.0604 25.164C77.7311 26.0307 77.5317 26.7413 77.4624 27.296C77.3931 27.8507 77.4364 28.284 77.5924 28.596C77.7484 28.908 78.0084 29.1333 78.3724 29.272C78.7364 29.3933 79.1871 29.4627 79.7244 29.48V30C79.1697 29.9653 78.6324 29.948 78.1124 29.948C77.5924 29.9307 77.0724 29.922 76.5524 29.922C76.1711 29.922 75.8071 29.9307 75.4604 29.948C75.1311 29.948 74.8364 29.9653 74.5764 30V29.48C74.9577 29.3933 75.3305 29.168 75.6945 28.804C76.0758 28.44 76.4397 27.8073 76.7864 26.906L82.7404 11.514C82.9484 11.5313 83.1737 11.54 83.4164 11.54C83.6591 11.54 83.8844 11.5313 84.0924 11.514ZM86.3544 22.512V23.032H78.6064L78.8664 22.512H86.3544ZM112.556 11.592V12.112C112.001 12.1293 111.576 12.1987 111.282 12.32C110.987 12.424 110.788 12.632 110.684 12.944C110.597 13.2387 110.554 13.7067 110.554 14.348V27.244C110.554 27.868 110.606 28.336 110.71 28.648C110.814 28.96 111.004 29.168 111.282 29.272C111.576 29.376 112.001 29.4453 112.556 29.48V30C112.105 29.9653 111.533 29.948 110.84 29.948C110.146 29.9307 109.444 29.922 108.734 29.922C107.954 29.922 107.217 29.9307 106.524 29.948C105.848 29.948 105.302 29.9653 104.886 30V29.48C105.475 29.4453 105.917 29.376 106.212 29.272C106.524 29.168 106.732 28.96 106.836 28.648C106.94 28.336 106.992 27.868 106.992 27.244V13.1L107.174 13.126L100.726 30.078H100.31L93.4457 13.256V26.152C93.4457 26.984 93.4977 27.634 93.6017 28.102C93.7057 28.5527 93.931 28.882 94.2777 29.09C94.6417 29.2807 95.1877 29.4107 95.9157 29.48V30C95.5864 29.9653 95.1617 29.948 94.6417 29.948C94.1217 29.9307 93.6277 29.922 93.1597 29.922C92.7437 29.922 92.319 29.9307 91.8857 29.948C91.4697 29.948 91.123 29.9653 90.8457 30V29.48C91.4177 29.4107 91.8424 29.2807 92.1197 29.09C92.4144 28.8993 92.605 28.5873 92.6917 28.154C92.7957 27.7207 92.8477 27.1227 92.8477 26.36V14.348C92.8477 13.7067 92.7957 13.2387 92.6917 12.944C92.605 12.632 92.4144 12.424 92.1197 12.32C91.8424 12.1987 91.4177 12.1293 90.8457 12.112V11.592C91.123 11.6093 91.4697 11.6267 91.8857 11.644C92.319 11.6613 92.7437 11.67 93.1597 11.67C93.801 11.67 94.425 11.6613 95.0317 11.644C95.6384 11.6267 96.1757 11.6093 96.6437 11.592L102.234 25.554L101.662 26.022L107.096 11.67C107.356 11.67 107.624 11.67 107.902 11.67C108.196 11.67 108.474 11.67 108.734 11.67C109.444 11.67 110.146 11.6613 110.84 11.644C111.533 11.6267 112.105 11.6093 112.556 11.592ZM121.847 11.228C123.615 11.228 125.167 11.6007 126.501 12.346C127.836 13.0913 128.867 14.166 129.595 15.57C130.341 16.9567 130.713 18.6467 130.713 20.64C130.713 22.5813 130.332 24.28 129.569 25.736C128.824 27.192 127.775 28.3273 126.423 29.142C125.089 29.9567 123.555 30.364 121.821 30.364C120.053 30.364 118.502 29.9913 117.167 29.246C115.833 28.5007 114.793 27.426 114.047 26.022C113.319 24.618 112.955 22.928 112.955 20.952C112.955 19.0107 113.337 17.312 114.099 15.856C114.862 14.4 115.911 13.2647 117.245 12.45C118.58 11.6353 120.114 11.228 121.847 11.228ZM121.743 11.696C120.721 11.696 119.828 12.086 119.065 12.866C118.32 13.646 117.739 14.7207 117.323 16.09C116.907 17.4593 116.699 19.0453 116.699 20.848C116.699 22.6853 116.933 24.2887 117.401 25.658C117.869 27.01 118.502 28.0587 119.299 28.804C120.097 29.532 120.972 29.896 121.925 29.896C122.948 29.896 123.832 29.506 124.577 28.726C125.34 27.946 125.929 26.8713 126.345 25.502C126.761 24.1153 126.969 22.5293 126.969 20.744C126.969 18.8893 126.735 17.286 126.267 15.934C125.799 14.582 125.167 13.542 124.369 12.814C123.589 12.0687 122.714 11.696 121.743 11.696ZM147.966 11.592V12.112C147.412 12.164 146.987 12.294 146.692 12.502C146.398 12.6927 146.198 13.0047 146.094 13.438C146.008 13.854 145.964 14.452 145.964 15.232V30.078C145.808 30.0607 145.635 30.052 145.444 30.052C145.271 30.052 145.08 30.0607 144.872 30.078L133.718 14.92V26.152C133.718 26.984 133.77 27.634 133.874 28.102C133.978 28.5527 134.204 28.882 134.55 29.09C134.914 29.2807 135.46 29.4107 136.188 29.48V30C135.859 29.9653 135.434 29.948 134.914 29.948C134.394 29.9307 133.9 29.922 133.432 29.922C133.016 29.922 132.592 29.9307 132.158 29.948C131.742 29.948 131.396 29.9653 131.118 30V29.48C131.69 29.4107 132.115 29.2807 132.392 29.09C132.687 28.8993 132.878 28.5873 132.964 28.154C133.068 27.7207 133.12 27.1227 133.12 26.36V14.348C133.12 13.7067 133.068 13.2387 132.964 12.944C132.878 12.632 132.687 12.424 132.392 12.32C132.115 12.1987 131.69 12.1293 131.118 12.112V11.592C131.396 11.6093 131.742 11.6267 132.158 11.644C132.592 11.6613 133.016 11.67 133.432 11.67C133.831 11.67 134.221 11.6613 134.602 11.644C134.984 11.6267 135.322 11.6093 135.616 11.592L145.366 24.566V15.44C145.366 14.5907 145.314 13.9407 145.21 13.49C145.106 13.0393 144.881 12.71 144.534 12.502C144.188 12.294 143.642 12.164 142.896 12.112V11.592C143.226 11.6093 143.65 11.6267 144.17 11.644C144.708 11.6613 145.202 11.67 145.652 11.67C146.086 11.67 146.51 11.6613 146.926 11.644C147.36 11.6267 147.706 11.6093 147.966 11.592ZM155.866 11.592C159.194 11.592 161.655 12.372 163.25 13.932C164.862 15.4747 165.668 17.6933 165.668 20.588C165.668 22.4773 165.269 24.1327 164.472 25.554C163.692 26.958 162.556 28.05 161.066 28.83C159.575 29.61 157.764 30 155.632 30C155.372 30 155.016 29.9913 154.566 29.974C154.132 29.9567 153.673 29.948 153.188 29.948C152.72 29.9307 152.286 29.922 151.888 29.922C151.177 29.922 150.484 29.9307 149.808 29.948C149.132 29.948 148.577 29.9653 148.144 30V29.48C148.716 29.4453 149.14 29.376 149.418 29.272C149.712 29.168 149.903 28.96 149.99 28.648C150.094 28.336 150.146 27.868 150.146 27.244V14.348C150.146 13.7067 150.094 13.2387 149.99 12.944C149.903 12.632 149.712 12.424 149.418 12.32C149.14 12.1987 148.716 12.1293 148.144 12.112V11.592C148.577 11.6093 149.132 11.6353 149.808 11.67C150.484 11.6873 151.16 11.6873 151.836 11.67C152.46 11.6527 153.162 11.6353 153.942 11.618C154.722 11.6007 155.363 11.592 155.866 11.592ZM155.632 12.06C154.834 12.06 154.314 12.2073 154.072 12.502C153.829 12.7967 153.708 13.3947 153.708 14.296V27.296C153.708 28.1973 153.829 28.7953 154.072 29.09C154.332 29.3847 154.86 29.532 155.658 29.532C157.27 29.532 158.526 29.194 159.428 28.518C160.346 27.8247 160.988 26.8193 161.352 25.502C161.733 24.1847 161.924 22.5813 161.924 20.692C161.924 18.7507 161.716 17.1473 161.3 15.882C160.901 14.5993 160.242 13.646 159.324 13.022C158.405 12.3807 157.174 12.06 155.632 12.06Z" fill="#171717"/>
<path d="M19.0089 37.3387C8.88363 37.3387 0.675537 29.1307 0.675537 19.0054C0.675537 8.88019 8.88363 0.672119 19.0089 0.672119C29.134 0.672119 37.3422 8.88019 37.3422 19.0054C37.3422 29.1307 29.134 37.3387 19.0089 37.3387ZM14.4255 13.5055L9.84223 18.0887L19.0074 27.2554L28.1756 18.0887L23.5922 13.5055H14.4255Z" fill="#404040"/>
</svg>
