<svg width="166" height="38" viewBox="0 0 166 38" fill="none" xmlns="http://www.w3.org/2000/svg">
<path d="M47.8943 29V11.5455H54.7807C56.0989 11.5455 57.2239 11.7812 58.1557 12.2528C59.0932 12.7187 59.8063 13.3807 60.2949 14.2386C60.7892 15.0909 61.0364 16.0937 61.0364 17.2472C61.0364 18.4062 60.7864 19.4034 60.2864 20.2386C59.7864 21.0682 59.0619 21.7045 58.1131 22.1477C57.1699 22.5909 56.0279 22.8125 54.6869 22.8125H50.0762V19.8466H54.0904C54.7949 19.8466 55.3801 19.75 55.846 19.5568C56.3119 19.3636 56.6585 19.0739 56.8858 18.6875C57.1188 18.3011 57.2352 17.821 57.2352 17.2472C57.2352 16.6676 57.1188 16.179 56.8858 15.7812C56.6585 15.3835 56.3091 15.0824 55.8375 14.8778C55.3716 14.6676 54.7835 14.5625 54.0733 14.5625H51.5847V29H47.8943ZM57.3205 21.0568L61.6585 29H57.5847L53.3404 21.0568H57.3205ZM67.84 29.2557C66.5161 29.2557 65.3712 28.9744 64.4053 28.4119C63.4451 27.8437 62.7036 27.054 62.1809 26.0426C61.6582 25.0256 61.3968 23.8466 61.3968 22.5057C61.3968 21.1534 61.6582 19.9716 62.1809 18.9602C62.7036 17.9432 63.4451 17.1534 64.4053 16.5909C65.3712 16.0227 66.5161 15.7386 67.84 15.7386C69.1639 15.7386 70.3059 16.0227 71.2661 16.5909C72.232 17.1534 72.9764 17.9432 73.4991 18.9602C74.0218 19.9716 74.2832 21.1534 74.2832 22.5057C74.2832 23.8466 74.0218 25.0256 73.4991 26.0426C72.9764 27.054 72.232 27.8437 71.2661 28.4119C70.3059 28.9744 69.1639 29.2557 67.84 29.2557ZM67.857 26.4432C68.4593 26.4432 68.9621 26.2727 69.3656 25.9318C69.769 25.5852 70.0729 25.1136 70.2775 24.517C70.4877 23.9205 70.5928 23.2415 70.5928 22.4801C70.5928 21.7188 70.4877 21.0398 70.2775 20.4432C70.0729 19.8466 69.769 19.375 69.3656 19.0284C68.9621 18.6818 68.4593 18.5085 67.857 18.5085C67.2491 18.5085 66.7377 18.6818 66.3229 19.0284C65.9139 19.375 65.6042 19.8466 65.394 20.4432C65.1894 21.0398 65.0871 21.7188 65.0871 22.4801C65.0871 23.2415 65.1894 23.9205 65.394 24.517C65.6042 25.1136 65.9139 25.5852 66.3229 25.9318C66.7377 26.2727 67.2491 26.4432 67.857 26.4432ZM75.2721 29V11.5455H78.9028V18.108H79.0136C79.1727 17.7557 79.4028 17.3977 79.704 17.0341C80.0108 16.6648 80.4085 16.358 80.8971 16.1136C81.3915 15.8636 82.0051 15.7386 82.7381 15.7386C83.6926 15.7386 84.5733 15.9886 85.3801 16.4886C86.1869 16.983 86.8318 17.7301 87.3148 18.7301C87.7977 19.7244 88.0392 20.9716 88.0392 22.4716C88.0392 23.9318 87.8034 25.1648 87.3318 26.1705C86.8659 27.1705 86.2295 27.929 85.4227 28.446C84.6216 28.9574 83.7239 29.2131 82.7295 29.2131C82.025 29.2131 81.4256 29.0966 80.9312 28.8636C80.4426 28.6307 80.042 28.3381 79.7295 27.9858C79.417 27.6278 79.1784 27.267 79.0136 26.9034H78.8517V29H75.2721ZM78.8261 22.4545C78.8261 23.233 78.9341 23.9119 79.15 24.4915C79.3659 25.071 79.6784 25.5227 80.0875 25.8466C80.4966 26.1648 80.9937 26.3239 81.579 26.3239C82.1699 26.3239 82.6699 26.1619 83.079 25.8381C83.4881 25.5085 83.7977 25.054 84.0079 24.4744C84.2239 23.8892 84.3318 23.2159 84.3318 22.4545C84.3318 21.6989 84.2267 21.0341 84.0165 20.4602C83.8062 19.8864 83.4966 19.4375 83.0875 19.1136C82.6784 18.7898 82.1756 18.6278 81.579 18.6278C80.9881 18.6278 80.4881 18.7841 80.079 19.0966C79.6756 19.4091 79.3659 19.8523 79.15 20.4261C78.9341 21 78.8261 21.6761 78.8261 22.4545ZM89.0218 29V15.9091H92.6525V29H89.0218ZM90.8456 14.2216C90.3059 14.2216 89.8428 14.0426 89.4564 13.6847C89.0758 13.321 88.8854 12.8864 88.8854 12.3807C88.8854 11.8807 89.0758 11.4517 89.4564 11.0938C89.8428 10.7301 90.3059 10.5483 90.8456 10.5483C91.3854 10.5483 91.8456 10.7301 92.2263 11.0938C92.6127 11.4517 92.8059 11.8807 92.8059 12.3807C92.8059 12.8864 92.6127 13.321 92.2263 13.6847C91.8456 14.0426 91.3854 14.2216 90.8456 14.2216ZM97.7511 21.4318V29H94.1208V15.9091H97.5811V18.2188H97.7341C98.0241 17.4574 98.5101 16.8551 99.1921 16.4119C99.8741 15.9631 100.7 15.7386 101.672 15.7386C102.581 15.7386 103.374 15.9375 104.05 16.3352C104.726 16.733 105.251 17.3011 105.626 18.0398C106.001 18.7727 106.189 19.6477 106.189 20.6648V29H102.558V21.3125C102.564 20.5114 102.359 19.8864 101.945 19.4375C101.53 18.983 100.959 18.7557 100.232 18.7557C99.7431 18.7557 99.3111 18.8608 98.9361 19.071C98.5671 19.2812 98.2771 19.5881 98.0671 19.9915C97.8621 20.3892 97.7571 20.8693 97.7511 21.4318ZM110.193 29L106.63 15.9091H110.304L112.332 24.7045H112.451L114.565 15.9091H118.17L120.318 24.6534H120.429L122.423 15.9091H126.088L122.534 29H118.69L116.44 20.767H116.278L114.028 29H110.193ZM132.171 29.2557C130.847 29.2557 129.702 28.9744 128.736 28.4119C127.776 27.8437 127.035 27.054 126.512 26.0426C125.989 25.0256 125.728 23.8466 125.728 22.5057C125.728 21.1534 125.989 19.9716 126.512 18.9602C127.035 17.9432 127.776 17.1534 128.736 16.5909C129.702 16.0227 130.847 15.7386 132.171 15.7386C133.495 15.7386 134.637 16.0227 135.597 16.5909C136.563 17.1534 137.308 17.9432 137.83 18.9602C138.353 19.9716 138.614 21.1534 138.614 22.5057C138.614 23.8466 138.353 25.0256 137.83 26.0426C137.308 27.054 136.563 27.8437 135.597 28.4119C134.637 28.9744 133.495 29.2557 132.171 29.2557ZM132.188 26.4432C132.79 26.4432 133.293 26.2727 133.697 25.9318C134.1 25.5852 134.404 25.1136 134.609 24.517C134.819 23.9205 134.924 23.2415 134.924 22.4801C134.924 21.7188 134.819 21.0398 134.609 20.4432C134.404 19.8466 134.1 19.375 133.697 19.0284C133.293 18.6818 132.79 18.5085 132.188 18.5085C131.58 18.5085 131.069 18.6818 130.654 19.0284C130.245 19.375 129.935 19.8466 129.725 20.4432C129.521 21.0398 129.418 21.7188 129.418 22.4801C129.418 23.2415 129.521 23.9205 129.725 24.517C129.935 25.1136 130.245 25.5852 130.654 25.9318C131.069 26.2727 131.58 26.4432 132.188 26.4432ZM145.45 29.2557C144.126 29.2557 142.981 28.9744 142.015 28.4119C141.055 27.8437 140.314 27.054 139.791 26.0426C139.268 25.0256 139.007 23.8466 139.007 22.5057C139.007 21.1534 139.268 19.9716 139.791 18.9602C140.314 17.9432 141.055 17.1534 142.015 16.5909C142.981 16.0227 144.126 15.7386 145.45 15.7386C146.774 15.7386 147.916 16.0227 148.876 16.5909C149.842 17.1534 150.586 17.9432 151.109 18.9602C151.632 19.9716 151.893 21.1534 151.893 22.5057C151.893 23.8466 151.632 25.0256 151.109 26.0426C150.586 27.054 149.842 27.8437 148.876 28.4119C147.916 28.9744 146.774 29.2557 145.45 29.2557ZM145.467 26.4432C146.069 26.4432 146.572 26.2727 146.975 25.9318C147.379 25.5852 147.683 25.1136 147.887 24.517C148.098 23.9205 148.203 23.2415 148.203 22.4801C148.203 21.7188 148.098 21.0398 147.887 20.4432C147.683 19.8466 147.379 19.375 146.975 19.0284C146.572 18.6818 146.069 18.5085 145.467 18.5085C144.859 18.5085 144.348 18.6818 143.933 19.0284C143.524 19.375 143.214 19.8466 143.004 20.4432C142.799 21.0398 142.697 21.7188 142.697 22.4801C142.697 23.2415 142.799 23.9205 143.004 24.517C143.214 25.1136 143.524 25.5852 143.933 25.9318C144.348 26.2727 144.859 26.4432 145.467 26.4432ZM157.638 29.2131C156.643 29.2131 155.743 28.9574 154.936 28.446C154.135 27.929 153.499 27.1705 153.027 26.1705C152.561 25.1648 152.328 23.9318 152.328 22.4716C152.328 20.9716 152.57 19.7244 153.052 18.7301C153.535 17.7301 154.177 16.983 154.979 16.4886C155.785 15.9886 156.669 15.7386 157.629 15.7386C158.362 15.7386 158.973 15.8636 159.462 16.1136C159.956 16.358 160.354 16.6648 160.655 17.0341C160.962 17.3977 161.195 17.7557 161.354 18.108H161.464V11.5455H165.087V29H161.507V26.9034H161.354C161.183 27.267 160.942 27.6278 160.629 27.9858C160.322 28.3381 159.922 28.6307 159.427 28.8636C158.939 29.0966 158.342 29.2131 157.638 29.2131ZM158.788 26.3239C159.374 26.3239 159.868 26.1648 160.271 25.8466C160.68 25.5227 160.993 25.071 161.209 24.4915C161.43 23.9119 161.541 23.233 161.541 22.4545C161.541 21.6761 161.433 21 161.217 20.4261C161.001 19.8523 160.689 19.4091 160.28 19.0966C159.871 18.7841 159.374 18.6278 158.788 18.6278C158.192 18.6278 157.689 18.7898 157.28 19.1136C156.871 19.4375 156.561 19.8864 156.351 20.4602C156.141 21.0341 156.035 21.6989 156.035 22.4545C156.035 23.2159 156.141 23.8892 156.351 24.4744C156.567 25.054 156.876 25.5085 157.28 25.8381C157.689 26.1619 158.192 26.3239 158.788 26.3239Z" fill="#171717"/>
<path d="M4.15259 29.7502L11.3228 22.58L16.5082 27.7654L24.8886 19.3851L28.1756 22.6721V13.5055H19.0089L22.2959 16.7924L16.5082 22.58L11.3228 17.3946L2.2554 26.4619C1.23999 24.184 0.675537 21.6606 0.675537 19.0054C0.675537 8.88019 8.88363 0.672119 19.0089 0.672119C29.134 0.672119 37.3422 8.88019 37.3422 19.0054C37.3422 29.1307 29.134 37.3387 19.0089 37.3387C12.897 37.3387 7.48373 34.348 4.15259 29.7502Z" fill="#404040"/>
</svg>
