<svg width="166" height="36" viewBox="0 0 166 36" fill="none" xmlns="http://www.w3.org/2000/svg">
<path d="M64.313 22.0806C64.313 23.1385 64.0404 24.054 63.4951 24.8271C62.958 25.6003 62.2052 26.1943 61.2368 26.6094C60.2684 27.0163 59.1576 27.2197 57.9043 27.2197C57.5544 27.2197 57.123 27.1953 56.6104 27.1465C56.1058 27.1058 55.4303 26.9837 54.584 26.7803C53.7458 26.5768 52.8709 26.2757 51.9595 25.877V21.7266C52.814 22.2555 53.6522 22.695 54.4741 23.0449C55.3042 23.3949 56.1912 23.5698 57.1353 23.5698C58.006 23.5698 58.5675 23.4274 58.8198 23.1426C59.0802 22.8496 59.2104 22.577 59.2104 22.3247C59.2104 21.869 58.9907 21.4865 58.5513 21.1772C58.1118 20.8599 57.473 20.5343 56.6348 20.2007C55.707 19.8101 54.8932 19.3869 54.1934 18.9312C53.4935 18.4673 52.9198 17.8895 52.4722 17.1978C52.0327 16.506 51.813 15.6882 51.813 14.7441C51.813 13.8327 52.0368 13.0107 52.4844 12.2783C52.932 11.5378 53.6156 10.9478 54.5352 10.5083C55.4548 10.0688 56.5778 9.84912 57.9043 9.84912C58.8483 9.84912 59.7191 9.94272 60.5166 10.1299C61.3223 10.3089 61.9855 10.5124 62.5063 10.7402C63.0272 10.9681 63.3853 11.1471 63.5806 11.2773V15.2446C62.8888 14.7482 62.1157 14.3047 61.2612 13.9141C60.4149 13.5234 59.5075 13.3281 58.5391 13.3281C57.9043 13.3281 57.4445 13.4502 57.1597 13.6943C56.8748 13.9385 56.7324 14.2396 56.7324 14.5977C56.7324 14.9313 56.8748 15.2202 57.1597 15.4644C57.4445 15.7085 57.9531 16.0055 58.6855 16.3555C59.9876 16.9658 61.0293 17.5151 61.8105 18.0034C62.5918 18.4917 63.2021 19.0573 63.6416 19.7002C64.0892 20.335 64.313 21.1284 64.313 22.0806ZM93.6968 10.0811L86.3726 27.2197H83.4185L79.0239 17.2466L74.5195 27.2197H71.541L64.3633 10.0811H69.6489L73.1646 19.4561L77.1929 10.0811H80.8428L84.7979 19.4561L88.4722 10.0811H93.6968ZM111.691 27H106.467L105.087 23.5698H97.739L96.335 27H91.1104L98.593 10.0811H104.233L111.691 27ZM103.916 20.6279L101.438 14.4512L98.935 20.6279H103.916ZM127.086 15.4033C127.086 16.0299 126.976 16.6444 126.756 17.2466C126.545 17.8407 126.199 18.3981 125.719 18.9189C125.239 19.4316 124.588 19.8507 123.766 20.1763C122.952 20.4937 121.992 20.6523 120.885 20.6523H117.54V27H112.438V10.0811H120.885C121.992 10.0811 122.952 10.2438 123.766 10.5693C124.588 10.8949 125.239 11.318 125.719 11.8389C126.199 12.3597 126.545 12.9253 126.756 13.5356C126.976 14.146 127.086 14.7686 127.086 15.4033ZM121.886 15.4277C121.886 14.6221 121.646 14.0728 121.166 13.7798C120.694 13.4787 119.843 13.3281 118.614 13.3281H117.54V17.4053H118.639C119.485 17.4053 120.136 17.3524 120.592 17.2466C121.048 17.1408 121.377 16.9455 121.581 16.6606C121.784 16.3758 121.886 15.9648 121.886 15.4277ZM145.813 18.8457C145.813 20.5791 145.496 21.9707 144.861 23.0205C144.234 24.0703 143.494 24.9207 142.639 25.5718C141.427 26.5239 139.73 27 137.549 27H128.418V10.0811H135.449C136.507 10.0811 137.41 10.138 138.159 10.252C138.916 10.3577 139.596 10.5124 140.198 10.7158C140.8 10.9111 141.313 11.1349 141.736 11.3872C142.159 11.6313 142.537 11.8958 142.871 12.1807C143.449 12.6527 143.953 13.2101 144.385 13.853C144.824 14.4959 145.17 15.2406 145.422 16.0869C145.683 16.9333 145.813 17.8529 145.813 18.8457ZM140.625 18.626C140.625 17.2507 140.361 16.1805 139.832 15.4155C139.311 14.6424 138.68 14.1257 137.939 13.8652C137.207 13.6048 136.458 13.4746 135.693 13.4746H133.521V23.4966H135.693C137.028 23.4966 138.184 23.1792 139.16 22.5444C140.137 21.9097 140.625 20.6035 140.625 18.626ZM165.578 18.5283C165.578 20.1071 165.211 21.5597 164.479 22.8862C163.755 24.2127 162.672 25.2666 161.232 26.0479C159.792 26.8291 158.038 27.2197 155.971 27.2197C153.879 27.2197 152.109 26.8128 150.661 25.999C149.212 25.1852 148.134 24.1151 147.426 22.7886C146.726 21.4621 146.376 20.042 146.376 18.5283C146.376 17.0065 146.726 15.5864 147.426 14.2681C148.126 12.9416 149.2 11.8755 150.648 11.0698C152.105 10.256 153.879 9.84912 155.971 9.84912C157.533 9.84912 158.925 10.0811 160.146 10.5449C161.374 11.0088 162.383 11.6395 163.173 12.437C163.962 13.2264 164.56 14.1501 164.967 15.208C165.374 16.2578 165.578 17.3646 165.578 18.5283ZM160.377 18.5283C160.377 17.8936 160.284 17.3158 160.097 16.7949C159.91 16.266 159.625 15.8102 159.242 15.4277C158.868 15.0371 158.408 14.736 157.863 14.5244C157.318 14.3047 156.687 14.1948 155.971 14.1948C154.604 14.1948 153.529 14.5936 152.748 15.3911C151.967 16.1886 151.576 17.2344 151.576 18.5283C151.576 19.8223 151.967 20.8721 152.748 21.6777C153.537 22.4753 154.612 22.874 155.971 22.874C156.907 22.874 157.704 22.6909 158.363 22.3247C159.022 21.9504 159.523 21.4377 159.865 20.7866C160.207 20.1274 160.377 19.3747 160.377 18.5283Z" fill="#171717"/>
<path d="M28.5467 0.203613L25.9538 2.79633L30.1575 6.99994H20.8337V10.6666H30.1575L25.9538 14.8702L28.5467 17.4629L37.1764 8.83334L28.5467 0.203613ZM9.8336 17.0832C14.39 17.0832 18.0837 13.3896 18.0837 8.83334C18.0837 4.27694 14.39 0.583303 9.8336 0.583303C5.27726 0.583303 1.58361 4.27694 1.58361 8.83334C1.58361 13.3896 5.27726 17.0832 9.8336 17.0832ZM7.843 28.9999L12.0466 33.2036L9.4539 35.7963L0.824219 27.1666L9.4539 18.5369L12.0466 21.1296L7.843 25.3332H17.167V28.9999H7.843ZM22.667 19.8332C21.6545 19.8332 20.8337 20.654 20.8337 21.6666V32.6666C20.8337 33.6791 21.6545 34.4999 22.667 34.4999H33.667C34.6794 34.4999 35.5004 33.6791 35.5004 32.6666V21.6666C35.5004 20.654 34.6794 19.8332 33.667 19.8332H22.667Z" fill="#404040"/>
</svg>
