<svg width="160" height="34" viewBox="0 0 160 34" fill="none" xmlns="http://www.w3.org/2000/svg">
<path d="M50.8652 12.729L53.8438 21.5547L56.6636 12.729H54.9668V9.60401H61.5951V12.729H59.8983L62.9135 21.5547L65.8188 12.729H63.9634V9.60401H71.3486V12.729H69.3467L64.2441 28.0977H60.8384L57.9453 19.6992L55.1987 28.0977H51.6708L46.4219 12.729H44.4688V9.60401H52.7695V12.729H50.8652ZM80.4076 20.2974V25.0459H82.4829V28H76.3305V26.999C75.1667 27.7965 74.0031 28.1953 72.8394 28.1953C71.4315 28.1953 70.3044 27.8332 69.458 27.1089C68.6117 26.3846 68.1884 25.408 68.1884 24.1792C68.1884 22.8771 68.6605 21.8354 69.6045 21.0542C70.5566 20.2648 71.818 19.8701 73.3887 19.8701C73.9339 19.8701 74.4181 19.9312 74.8413 20.0532C75.2726 20.1672 75.7689 20.3665 76.3305 20.6514V19.626C76.3305 18.9749 76.127 18.4541 75.7201 18.0635C75.3133 17.6729 74.7029 17.4775 73.8891 17.4775C73.002 17.4775 72.2168 17.8193 71.5332 18.5029L68.2372 17.9048C69.2382 15.8866 71.3052 14.8774 74.4384 14.8774C76.5868 14.8774 78.1168 15.321 79.0282 16.208C79.9478 17.0869 80.4076 18.45 80.4076 20.2974ZM73.7548 25.644C74.4872 25.644 75.3458 25.2046 76.3305 24.3257V23.1782C75.4516 22.6086 74.6459 22.3237 73.9135 22.3237C73.3275 22.3237 72.88 22.4621 72.5708 22.7388C72.2616 23.0155 72.1069 23.4102 72.1069 23.9229C72.1069 25.0703 72.6561 25.644 73.7548 25.644ZM96.1073 19.8213V25.0459H98.036V28H92.0058V20.1509C92.0058 19.5487 91.9122 19.1133 91.725 18.8447C91.546 18.568 91.2409 18.4297 90.8096 18.4297C90.0283 18.4297 89.2429 18.7104 88.4535 19.272V25.0459H90.4555V28H82.4355V25.0459H84.3887V18.1733H82.4355V15.1704H88.4535V16.3789C89.6742 15.4593 90.9276 14.9995 92.2134 14.9995C93.491 14.9995 94.4594 15.4064 95.1186 16.2202C95.7777 17.0259 96.1073 18.2262 96.1073 19.8213ZM117.631 12.729H115.263V9.60401H123.479V12.729H120.915V28.1221H116.838L108.879 14.4746V24.875H111.186V28H103.129V24.875H105.607V12.729H103.129V9.60401H110.856L117.631 21.103V12.729ZM134.344 20.2974V25.0459H136.419V28H130.267V26.999C129.103 27.7965 127.94 28.1953 126.776 28.1953C125.368 28.1953 124.241 27.8332 123.395 27.1089C122.548 26.3846 122.125 25.408 122.125 24.1792C122.125 22.8771 122.597 21.8354 123.541 21.0542C124.493 20.2648 125.755 19.8701 127.325 19.8701C127.87 19.8701 128.355 19.9312 128.778 20.0532C129.209 20.1672 129.706 20.3665 130.267 20.6514V19.626C130.267 18.9749 130.064 18.4541 129.657 18.0635C129.25 17.6729 128.639 17.4775 127.826 17.4775C126.939 17.4775 126.153 17.8193 125.47 18.5029L122.174 17.9048C123.175 15.8866 125.242 14.8774 128.375 14.8774C130.523 14.8774 132.053 15.321 132.965 16.208C133.884 17.0869 134.344 18.45 134.344 20.2974ZM127.691 25.644C128.424 25.644 129.282 25.2046 130.267 24.3257V23.1782C129.388 22.6086 128.583 22.3237 127.85 22.3237C127.264 22.3237 126.817 22.4621 126.507 22.7388C126.198 23.0155 126.043 23.4102 126.043 23.9229C126.043 25.0703 126.593 25.644 127.691 25.644ZM142.646 11.5205C142.646 12.1715 142.423 12.7127 141.975 13.144C141.536 13.5672 141.011 13.7788 140.4 13.7788C139.782 13.7788 139.249 13.5591 138.801 13.1196C138.362 12.672 138.142 12.139 138.142 11.5205C138.142 10.9102 138.362 10.3853 138.801 9.94581C139.249 9.49821 139.782 9.27441 140.4 9.27441C141.011 9.27441 141.536 9.49821 141.975 9.94581C142.423 10.3853 142.646 10.9102 142.646 11.5205ZM144.294 25.0459V28H136.372V25.0459H138.325V18.1733H136.372V15.1704H142.39V25.0459H144.294ZM157.992 19.8213V25.0459H159.921V28H153.891V20.1509C153.891 19.5487 153.797 19.1133 153.61 18.8447C153.431 18.568 153.126 18.4297 152.694 18.4297C151.913 18.4297 151.128 18.7104 150.338 19.272V25.0459H152.34V28H144.32V25.0459H146.273V18.1733H144.32V15.1704H150.338V16.3789C151.559 15.4593 152.812 14.9995 154.098 14.9995C155.376 14.9995 156.344 15.4064 157.003 16.2202C157.663 17.0259 157.992 18.2262 157.992 19.8213Z" fill="#171717"/>
<path d="M7.50009 15.1667L7.50109 0.5H4.40732L0.166748 1.63626V5.9056L3.83341 4.9183V15.1667H7.50009ZM31.3334 9.6667L24.0001 0.5L16.6668 9.6667H22.1668V33.5H25.8334V9.6667H31.3334ZM5.66675 25.25C4.65423 25.25 3.83341 24.4292 3.83341 23.4167C3.83341 22.4041 4.65423 21.5833 5.66675 21.5833C6.67926 21.5833 7.50009 22.4041 7.50009 23.4167C7.50009 24.4292 6.67926 25.25 5.66675 25.25ZM10.3837 26.2466C10.8809 25.4198 11.1668 24.4516 11.1668 23.4167C11.1668 20.379 8.70429 17.9167 5.66675 17.9167C2.62919 17.9167 0.166748 20.379 0.166748 23.4167C0.166748 26.1108 2.10386 28.3526 4.66127 28.825L1.96215 33.5H6.19605L10.3837 26.2466Z" fill="#404040"/>
</svg>
